<svg width="175" height="220" viewBox="0 0 175 220" fill="none" xmlns="http://www.w3.org/2000/svg">
<path fill-rule="evenodd" clip-rule="evenodd" d="M148.615 2.79746C147.645 4.33599 146.186 6.29805 145.372 7.15752L143.892 8.72012L143.416 12.4042L142.94 16.0883L143.444 16.8034C143.722 17.1966 145.289 18.9873 146.926 20.783C149.961 24.1113 150.683 24.9877 150.523 25.1469C150.474 25.196 149.973 25.0313 149.41 24.7808C148.778 24.4993 147.128 23.1005 145.092 21.1212L141.796 17.9172L136.897 15.5337C131.013 12.6709 127.818 11.3028 123.991 10.0069L121.12 9.03497L110.269 7.60704C104.301 6.82169 98.232 6.11619 96.7826 6.0392L94.1474 5.89953L92.194 6.26921C91.1196 6.47252 88.6401 7.24356 86.6841 7.98267C83.4363 9.21015 75.1309 12.2283 70.8489 13.7373C67.5542 14.8985 64.4722 17.3001 58.2982 23.5169C53.6833 28.1639 51.6261 30.7001 45.5161 39.2768C39.8732 47.1975 38.0185 50.0736 35.9544 54.1045C33.1153 59.6489 31.6082 63.9129 30.7861 68.7267L30.3038 71.5511V75.4021C30.3038 82.7992 31.6432 90.6596 34.1684 98.0793C35.7757 102.802 38.9199 108.325 39.5965 107.613C39.721 107.482 43.8463 102.012 48.7638 95.4575L57.7046 83.5402L58.0028 82.4168C58.2709 81.4075 59.6285 71.1329 60.61 62.6849L60.984 59.4673L62.7129 57.7202C63.6637 56.7594 67.307 53.5191 70.8092 50.5198L77.1768 45.0662L77.4719 44.0439C77.6343 43.4814 78.5811 40.5545 79.5757 37.5395C81.3504 32.1607 82.5018 29.3787 82.7064 29.9744C82.818 30.2985 80.12 43.4202 79.5273 45.437L79.1675 46.6612L72.0812 52.8258C63.9845 59.8698 64.2952 59.5938 63.9148 60.076C63.7569 60.2762 62.9196 65.4767 62.0541 71.6327C61.1885 77.7884 60.3906 83.206 60.2811 83.6715C60.0798 84.5257 57.7374 87.6857 50.0429 97.4834C47.9323 100.171 43.9556 105.319 41.2056 108.924C34.2928 117.987 30.3563 122.851 27.2223 126.204L24.549 129.064L23.7966 130.613C20.1015 138.221 15.2751 147.555 14.4883 148.614C13.0176 150.595 11.9935 151.514 9.36958 153.208C8.04839 154.061 6.43397 155.252 5.78188 155.855L4.59628 156.951L3.53334 159.215C1.77806 162.954 -0.142996 167.614 0.00840807 167.765C0.283427 168.039 3.2818 168.171 3.58078 167.922C3.74368 167.787 4.12339 166.979 4.42452 166.127C5.22274 163.868 6.24232 161.954 7.22118 160.876C8.01725 159.999 11.0875 157.785 11.507 157.785C11.6081 157.785 11.092 158.41 10.3602 159.173C7.73217 161.914 3.82704 168.663 2.64696 172.503L2.48214 173.039L3.27701 173.029C4.46045 173.013 10.1798 171.948 10.3956 171.702C10.4986 171.585 10.9912 170.524 11.4907 169.345C12.5404 166.864 15.2017 161.508 15.322 161.633C15.5652 161.886 14.6498 165.301 13.9256 166.842C13.4637 167.825 12.9197 169.204 12.7168 169.905L12.3478 171.181L14.3187 171.02C15.4025 170.932 16.4769 170.807 16.706 170.743C16.9367 170.677 17.6704 169.564 18.351 168.245C19.5563 165.911 21.6493 163.267 22.2916 163.267C22.4706 163.267 22.6759 162.919 22.7497 162.492C22.823 162.066 23.0901 160.43 23.3431 158.857L23.803 155.997L25.2617 151.848C26.064 149.566 27.2554 146.349 27.9094 144.698L29.0986 141.697L31.2386 139.79C32.4156 138.741 33.5401 137.561 33.7372 137.168C33.9346 136.775 34.3194 135.512 34.5925 134.361C34.8656 133.211 35.2472 131.978 35.4408 131.62C35.905 130.764 56.2741 110.404 65.3998 101.675C69.3526 97.8941 72.7127 94.5694 72.8668 94.2865C73.0208 94.0038 73.9515 91.3629 74.9349 88.4179C77.5938 80.455 80.6241 72.9402 81.4824 72.1804C81.7285 71.9625 84.2475 70.6354 87.0803 69.2313C91.5117 67.0347 94.851 65.2567 98.9387 62.9171L99.8969 62.3689L98.6991 63.6207C96.2393 66.1912 90.397 70.4266 85.2115 73.3986L82.9833 74.6754L82.617 75.5327C80.8782 79.5994 78.4481 85.881 76.8907 90.333L75.0147 95.6958L73.447 97.1259C70.1207 100.16 61.5517 108.368 55.2325 114.572L48.6304 121.054L51.026 123.4C52.6278 124.968 56.0813 127.727 61.447 131.727C65.861 135.017 70.8738 138.938 72.5867 140.441C77.7745 144.993 81.6513 149.607 83.9133 153.922C85.0783 156.144 86.1901 158.75 86.038 158.902C85.9979 158.941 85.4345 158.197 84.786 157.247C81.2031 152 75.3103 145.75 70.7668 142.377C68.2837 140.533 63.6378 137.587 62.5986 137.197L61.935 136.948L59.8345 137.624C58.6791 137.995 55.2004 139.313 52.1041 140.551C49.0077 141.789 44.4282 143.493 41.9277 144.338C39.4269 145.183 37.2514 146.007 37.0928 146.169C36.7303 146.539 36.1091 149.038 34.9533 154.775L34.047 159.273L34.3915 159.824C34.7652 160.422 47.7419 175.127 48.2938 175.578C48.479 175.729 51.8106 176.897 55.6975 178.173C62.9886 180.566 69.4355 182.822 70.2996 183.282L70.7929 183.545L70.4434 184.191C70.2512 184.546 69.3256 185.749 68.3865 186.863C64.2842 191.73 60.724 195.38 56.3398 199.213C53.7609 201.468 51.5708 203.441 51.4728 203.599C51.2783 203.912 50.6964 211.753 50.6779 214.305L50.6667 215.887L52.8388 217.944L55.0107 220L57.091 218.229C58.235 217.255 59.4292 216.185 59.7445 215.85L60.3177 215.242L60.157 212.076C60.0683 210.335 59.9385 208.427 59.8683 207.837L59.7406 206.765L60.8551 209.029C61.4681 210.275 62.072 211.553 62.1973 211.871L62.4249 212.449L63.7325 210.679C65.0999 208.829 65.3131 208.293 65.7537 205.602C66.3032 202.245 66.0958 202.485 78.0763 191.353C81.2275 188.424 83.9178 185.848 84.0546 185.627L84.3038 185.225L83.6735 184.343C83.3268 183.859 80.9959 181.349 78.4934 178.767L73.9436 174.072L72.786 173.637C70.5878 172.812 63.2351 169.656 60.5103 168.369C57.8591 167.116 57.0343 166.493 58.9491 167.189C59.4666 167.378 62.8545 168.568 66.4779 169.834C70.1012 171.101 73.6185 172.447 74.2939 172.827L75.5219 173.517L82.9181 175.31C86.9862 176.296 91.2101 177.323 92.3049 177.593L94.2955 178.082L95.981 177.573C96.9081 177.292 98.6651 176.542 99.8854 175.905C101.106 175.268 102.578 174.68 103.157 174.598L104.209 174.449L106.724 176.268C113.623 181.258 118.442 183.523 126.249 185.442L130.321 186.443L132.597 186.474C133.849 186.491 135.376 186.42 135.991 186.315L137.108 186.125L137.732 186.792C138.076 187.159 139.406 188.901 140.688 190.664C141.969 192.427 143.544 194.465 144.186 195.193C145.679 196.883 146.1 197.861 145.936 199.25C145.866 199.844 145.745 200.544 145.668 200.806L145.528 201.283L147.449 202.434C148.505 203.067 150.191 204.171 151.194 204.888C152.198 205.604 153.043 206.159 153.072 206.12C153.138 206.032 152.825 201.629 152.585 199.279C152.212 195.616 153.44 198.813 154.408 204.024C154.688 205.531 155.031 206.901 155.169 207.067C155.461 207.417 159.117 209.181 160.016 209.405L160.624 209.557L160.487 208.399C160.089 205.039 159.368 201.486 158.632 199.257C158.177 197.881 157.836 196.721 157.872 196.681C158.004 196.536 159.632 199.406 160.212 200.806C160.538 201.593 160.938 202.826 161.102 203.547C161.509 205.347 161.864 205.818 163.13 206.247L164.22 206.617V204.998C164.22 202.776 163.788 197.5 163.483 195.989L163.231 194.747L162.036 193.874C161.379 193.394 158.813 191.957 156.333 190.68C151.342 188.111 150.2 187.394 148.444 185.731L147.249 184.599L144.798 179.355C143.45 176.471 142.038 173.233 141.662 172.16L140.977 170.209L141.246 167.87C141.629 164.54 141.6 158.772 141.128 144.199L140.714 131.448L140.12 130.302C139.442 128.995 131.184 114.855 130.942 114.588C130.718 114.341 113.396 110.354 112.544 110.354C111.607 110.354 110.234 111.548 108.426 113.936C106.525 116.445 105.539 118.249 104.253 121.568C103.186 124.323 102.03 126.763 101.394 127.606L101.055 128.054L101.236 126.533C101.335 125.697 101.491 123.92 101.582 122.585L101.749 120.158L99.7448 119.557C98.6426 119.226 96.5011 118.619 94.9859 118.207C91.6394 117.297 90.3029 116.608 88.8059 115.022C88.1768 114.355 85.6623 110.914 83.2181 107.375C78.7581 100.916 78.2165 100.083 78.2165 99.6809C78.2165 99.5615 79.5774 97.8116 81.2407 95.7921C88.8214 86.5889 91.4135 83.0182 94.2672 77.848C96.3013 74.1627 96.9767 73.4148 99.4925 72.0612C102.352 70.5222 104.738 68.8876 105.924 67.654C106.473 67.0841 108.741 63.829 110.966 60.4206C113.19 57.0123 116.012 52.6985 117.236 50.8344C119.587 47.2549 120.257 45.8432 120.512 43.934L120.668 42.7623L119.681 42.0818C119.138 41.7076 118.729 41.3666 118.772 41.3239C118.815 41.2812 120.083 41.7358 121.591 42.3335C124.718 43.5734 133.367 46.5063 133.502 46.3721C133.551 46.3232 133.348 44.563 133.052 42.4608L132.513 38.6382L132.964 37.6429L133.415 36.6476L133.595 37.0935C133.694 37.3388 134.161 39.5582 134.633 42.0254C135.571 46.9277 136.799 51.2784 137.874 53.5086C138.781 55.3889 140.181 56.9358 143.367 59.5778C146.276 61.9904 147.553 63.5353 149.451 66.9387C157.823 81.9523 158.206 82.5575 159.898 83.4165C160.644 83.7947 166.218 85.8045 166.522 85.8045C166.573 85.8045 166.615 85.3154 166.615 84.7178C166.615 83.376 166.93 83.5197 167.458 85.1035L167.859 86.3036L168.974 86.1541C171.832 85.7711 175 84.6566 175 84.0345C175 83.8383 173.857 80.2145 172.46 75.982C168.986 65.4555 168.397 63.5563 167.415 59.7056L166.564 56.3688L166.864 55.5388C167.03 55.0824 167.635 53.9591 168.208 53.0424C168.781 52.1257 169.25 51.2407 169.25 51.0756C169.25 50.9104 168.72 48.9155 168.073 46.6426C167.425 44.3695 166.549 40.9087 166.127 38.9519L165.36 35.3943L164.61 34.2026C164.198 33.5472 162.403 31.2412 160.621 29.0782C158.839 26.9152 157.14 24.8056 156.845 24.3904L156.31 23.6353L157.055 20.3385C158.42 14.2991 158.36 13.8481 155.618 9.41871C153.672 6.2754 152.355 3.73893 151.73 1.93275C151.281 0.634 150.898 0 150.562 0C150.461 0 149.585 1.25894 148.615 2.79746ZM40.3576 11.8577C39.0038 13.9222 36.4589 17.7568 34.7022 20.3786L31.5086 25.1455L25.285 31.3863C21.3022 35.3803 19.0017 37.8636 18.8958 38.2838C18.7521 38.8537 19.8464 47.4635 20.1688 48.2993L20.2829 48.5954L20.877 48.3706C21.2038 48.2469 21.721 48.1458 22.0264 48.1458H22.5815L22.7504 46.2987C23.011 43.4514 23.5342 41.2967 24.3212 39.8302C25.0703 38.4342 26.833 36.2285 27.1996 36.2285C27.3165 36.2285 27.2156 36.6843 26.9756 37.2415C26.2341 38.9628 23.6511 46.9999 23.3946 48.3842C23.2611 49.1052 23.0863 50.2583 23.0062 50.9464L22.8608 52.1977H23.1679C24.01 52.1977 27.8964 50.7007 28.0052 50.3346C28.0706 50.1139 28.4029 48.9145 28.7435 47.6691C29.3925 45.2962 31.4693 39.0556 31.6784 38.8503C31.7453 38.7848 31.7436 39.8574 31.6748 41.2338L31.55 43.7364L30.689 46.221C30.2157 47.5874 29.8707 48.7479 29.9227 48.7994C29.9744 48.8511 30.8265 48.6073 31.8159 48.2579L33.6151 47.6224L35.9695 44.3685C37.2643 42.5788 39.0162 40.2666 39.8626 39.2303C41.6584 37.0318 41.8479 36.3885 41.6385 33.2025L41.4943 31.0107L41.8048 30.2232C42.8279 27.6271 46.9233 18.3529 47.0459 18.3545C47.1269 18.3555 47.4235 18.7576 47.705 19.2483C47.9867 19.7388 49.1126 21.347 50.2072 22.8218L52.1973 25.5032L52.8922 24.8478C53.2743 24.4872 55.2193 22.4893 57.2142 20.4081L60.8412 16.6244L59.0021 14.9262C57.8656 13.8767 56.6685 12.4543 55.8686 11.2022C55.1563 10.088 54.4118 9.0426 54.2137 8.87909C53.8946 8.61596 47.1288 8.11305 43.8085 8.1059L42.8193 8.10375L40.3576 11.8577ZM137.872 27.4693C137.877 28.2056 138.18 30.667 138.476 32.3673L138.613 33.1539L140.426 33.9762C143.136 35.2049 143.515 35.0857 141.952 33.4966C141.378 32.9127 140.438 31.3856 139.563 29.6145C138.769 28.0085 138.063 26.6947 137.994 26.6947C137.924 26.6947 137.87 27.0434 137.872 27.4693ZM101.57 32.7725C101.849 38.0202 102.968 47.013 103.811 50.7676L103.998 51.6018L104.269 51.1082C104.417 50.8365 104.66 49.9244 104.808 49.0809L105.076 47.5471L104.696 44.4784C104.056 39.3125 102.237 30.7666 101.647 30.1507C101.502 29.9994 101.473 30.9549 101.57 32.7725ZM156.661 49.983C157.082 50.8735 157.85 52.6475 158.368 53.9255C158.885 55.2037 159.394 56.2493 159.498 56.2493C159.741 56.2496 161.105 53.3961 161.105 52.8892C161.105 52.5676 156.691 48.6435 156.093 48.4338C155.984 48.3956 156.24 49.0928 156.661 49.983ZM160.626 105.388C156.948 107.854 153.866 112.653 152.839 117.513C152.141 120.81 152.496 125.137 153.768 128.852C154.625 131.358 155.779 133.47 158.571 137.645C161.311 141.742 163.121 145.057 163.971 147.536C166.048 153.59 165.396 160.581 162.268 165.818C161.055 167.849 157.727 171.098 155.116 172.799C152.939 174.218 147.352 177.091 146.77 177.091C146.617 177.091 146.492 177.211 146.492 177.357C146.492 177.887 148.849 182.466 149.356 182.922L149.877 183.39L151.902 182.706C158.849 180.359 166.152 173.703 169.362 166.791C171.601 161.969 172.393 156.243 171.518 151.202C170.49 145.275 168.46 141.233 162.954 134.154C160.511 131.014 159.106 128.598 158.154 125.899L157.42 123.821L157.33 120.484L157.239 117.147L157.836 114.842C158.188 113.483 159.133 111.048 160.139 108.908C161.078 106.911 161.814 105.14 161.775 104.971C161.727 104.763 161.36 104.896 160.626 105.388ZM103.022 139.015C103.115 139.441 104.045 142.9 105.089 146.702C106.133 150.503 107.322 155.303 107.733 157.368C108.143 159.433 108.549 161.122 108.635 161.122C108.721 161.122 109.1 160.801 109.477 160.409L110.164 159.696L109.382 155.94C108.422 151.325 106.275 144.78 104.497 141.041C103.146 138.202 102.717 137.612 103.022 139.015ZM125.444 161.829C124.342 163.516 122.767 165.629 121.943 166.524L120.445 168.153L116.759 168.272L113.073 168.391L114.75 170.146C118.049 173.598 122.619 176.888 125.881 178.16C127.426 178.763 131.962 179.951 132.716 179.951H133.129L132.963 177.27C132.632 171.904 132.143 168.182 131.539 166.418C130.474 163.312 128.117 158.712 127.61 158.751C127.52 158.757 126.545 160.143 125.444 161.829Z" fill="#06173a"/>
</svg>
