<svg width="500" height="500" viewBox="0 0 500 500" fill="none" xmlns="http://www.w3.org/2000/svg">
<path fill-rule="evenodd" clip-rule="evenodd" d="M375.792 29.7561C373.796 32.9218 370.793 36.9589 369.119 38.7274L366.075 41.9426L365.095 49.5231L364.115 57.1036L365.153 58.5748C365.724 59.384 368.948 63.0686 372.316 66.7634C378.561 73.6117 380.048 75.415 379.719 75.7426C379.617 75.8436 378.586 75.5047 377.429 74.9893C376.128 74.4101 372.732 71.5318 368.543 67.4593L361.761 60.8666L351.682 55.9624C339.574 50.0719 333.001 47.2569 325.125 44.5904L319.218 42.5905L296.891 39.6523C284.611 38.0364 272.123 36.5848 269.141 36.4263L263.719 36.139L259.7 36.8996C257.489 37.3179 252.387 38.9045 248.362 40.4253C241.68 42.9509 224.59 49.1612 215.78 52.266C209 54.6554 202.659 59.5969 189.955 72.3886C180.459 81.9504 176.227 87.169 163.654 104.816C152.044 121.114 148.227 127.032 143.98 135.326C138.139 146.734 135.038 155.508 133.346 165.413L132.354 171.225V179.148C132.354 194.369 135.109 210.542 140.305 225.809C143.612 235.527 150.082 246.891 151.474 245.426C151.731 245.156 160.219 233.901 170.337 220.415L188.734 195.893L189.347 193.582C189.899 191.505 192.692 170.364 194.712 152.981L195.481 146.361L199.039 142.766C200.995 140.789 208.492 134.122 215.698 127.95L228.8 116.729L229.407 114.625C229.741 113.468 231.689 107.446 233.736 101.242C237.388 90.1743 239.757 84.4501 240.178 85.6756C240.407 86.3426 234.856 113.342 233.637 117.492L232.896 120.011L218.315 132.695C201.655 147.189 202.295 146.621 201.512 147.613C201.187 148.025 199.464 158.726 197.683 171.392C195.902 184.058 194.26 195.206 194.035 196.164C193.621 197.921 188.801 204.423 172.969 224.583C168.626 230.113 160.444 240.706 154.785 248.123C140.561 266.771 132.461 276.78 126.013 283.679L120.512 289.564L118.964 292.752C111.361 308.405 101.43 327.611 99.8114 329.791C96.7853 333.866 94.678 335.758 89.279 339.243C86.5605 340.998 83.2386 343.449 81.8969 344.689L79.4574 346.944L77.2703 351.603C73.6586 359.297 69.7058 368.885 70.0173 369.196C70.5832 369.759 76.7527 370.03 77.3679 369.519C77.703 369.24 78.4843 367.578 79.1039 365.825C80.7464 361.178 82.8443 357.239 84.8584 355.02C86.4964 353.217 92.8138 348.66 93.6769 348.66C93.8849 348.66 92.8231 349.946 91.3172 351.516C85.9098 357.156 77.8746 371.043 75.4464 378.944L75.1073 380.047L76.7428 380.026C79.1779 379.994 90.9461 377.802 91.3902 377.296C91.6021 377.056 92.6156 374.873 93.6434 372.446C95.8034 367.342 101.279 356.32 101.527 356.578C102.027 357.098 100.144 364.125 98.6535 367.296C97.7031 369.319 96.5837 372.155 96.1662 373.599L95.4071 376.224L99.4624 375.893C101.692 375.712 103.903 375.454 104.374 375.322C104.849 375.188 106.359 372.897 107.759 370.184C110.239 365.381 114.546 359.94 115.868 359.94C116.236 359.94 116.658 359.225 116.81 358.346C116.961 357.469 117.51 354.104 118.031 350.867L118.977 344.982L121.979 336.445C123.63 331.75 126.081 325.129 127.427 321.733L129.874 315.557L134.277 311.633C136.699 309.475 139.012 307.048 139.418 306.239C139.824 305.429 140.616 302.831 141.178 300.464C141.74 298.097 142.525 295.559 142.923 294.824C143.879 293.061 185.79 251.168 204.568 233.208C212.701 225.428 219.615 218.587 219.932 218.005C220.249 217.423 222.164 211.99 224.187 205.93C229.658 189.545 235.893 174.083 237.659 172.519C238.166 172.071 243.349 169.34 249.178 166.451C258.296 161.932 265.167 158.273 273.578 153.459L275.549 152.331L273.085 154.907C268.023 160.196 256.002 168.911 245.332 175.026L240.748 177.653L239.994 179.417C236.416 187.785 231.416 200.71 228.211 209.87L224.351 220.905L221.126 223.847C214.281 230.091 196.65 246.979 183.647 259.745L170.063 273.083L174.992 277.909C178.288 281.135 185.394 286.813 196.434 295.042C205.516 301.812 215.831 309.88 219.355 312.973C230.03 322.339 238.007 331.834 242.661 340.712C245.058 345.285 247.346 350.646 247.033 350.958C246.951 351.04 245.791 349.508 244.457 347.554C237.085 336.758 224.96 323.897 215.611 316.956C210.501 313.163 200.942 307.101 198.804 306.298L197.438 305.785L193.116 307.176C190.739 307.941 183.581 310.651 177.21 313.199C170.839 315.746 161.416 319.253 156.271 320.992C151.125 322.731 146.649 324.426 146.323 324.759C145.577 325.522 144.299 330.662 141.92 342.467L140.056 351.721L140.764 352.855C141.533 354.086 168.234 384.344 169.37 385.272C169.751 385.583 176.606 387.986 184.604 390.611C199.606 395.535 212.871 400.177 214.649 401.123L215.664 401.664L214.945 402.993C214.55 403.725 212.645 406.199 210.713 408.492C202.272 418.507 194.947 426.017 185.925 433.904C180.619 438.543 176.113 442.604 175.911 442.929C175.511 443.573 174.314 459.707 174.276 464.957L174.252 468.212L178.722 472.444L183.191 476.675L187.471 473.031C189.825 471.027 192.282 468.824 192.931 468.136L194.111 466.885L193.78 460.371C193.597 456.788 193.33 452.863 193.186 451.649L192.923 449.442L195.216 454.101C196.478 456.664 197.72 459.295 197.978 459.949L198.446 461.137L201.137 457.496C203.95 453.689 204.389 452.587 205.296 447.049C206.426 440.142 206 440.635 230.651 417.729C237.135 411.705 242.67 406.403 242.952 405.948L243.465 405.121L242.168 403.308C241.454 402.31 236.658 397.147 231.509 391.834L222.147 382.173L219.766 381.279C215.242 379.58 200.113 373.087 194.507 370.438C189.052 367.86 187.354 366.578 191.294 368.011C192.359 368.398 199.33 370.847 206.786 373.453C214.241 376.059 221.478 378.83 222.868 379.611L225.395 381.031L240.613 384.72C248.984 386.749 257.675 388.863 259.928 389.417L264.024 390.424L267.492 389.376C269.399 388.799 273.015 387.256 275.526 385.945C278.037 384.634 281.066 383.423 282.257 383.255L284.422 382.948L289.598 386.692C303.792 396.96 313.708 401.619 329.771 405.568L338.151 407.628L342.834 407.692C345.41 407.727 348.551 407.58 349.816 407.365L352.115 406.973L353.4 408.346C354.107 409.1 356.843 412.686 359.481 416.314C362.118 419.941 365.358 424.134 366.68 425.632C369.75 429.109 370.618 431.12 370.28 433.98C370.136 435.201 369.888 436.642 369.729 437.182L369.44 438.162L373.393 440.531C375.566 441.834 379.034 444.105 381.099 445.58C383.164 447.053 384.902 448.195 384.962 448.115C385.098 447.934 384.454 438.874 383.961 434.039C383.193 426.503 385.721 433.081 387.713 443.802C388.289 446.904 388.994 449.722 389.279 450.064C389.88 450.784 397.401 454.413 399.251 454.875L400.502 455.188L400.22 452.805C399.4 445.892 397.917 438.581 396.403 433.994C395.468 431.162 394.765 428.776 394.84 428.693C395.112 428.394 398.461 434.299 399.655 437.182C400.325 438.8 401.148 441.338 401.485 442.821C402.324 446.524 403.053 447.494 405.658 448.377L407.901 449.138V445.806C407.901 441.235 407.012 430.378 406.384 427.27L405.867 424.714L403.408 422.918C402.055 421.93 396.775 418.973 391.674 416.346C381.404 411.059 379.054 409.584 375.441 406.162L372.982 403.833L367.938 393.044C365.164 387.109 362.26 380.447 361.485 378.24L360.075 374.224L360.629 369.412C361.417 362.56 361.358 350.691 360.386 320.706L359.535 294.468L358.313 292.112C356.918 289.422 339.925 260.327 339.429 259.778C338.968 259.269 303.325 251.066 301.572 251.066C299.644 251.066 296.819 253.522 293.098 258.436C289.188 263.598 287.158 267.311 284.512 274.14C282.317 279.808 279.938 284.83 278.63 286.563L277.933 287.485L278.304 284.356C278.508 282.635 278.829 278.98 279.017 276.233L279.36 271.239L275.236 270.002C272.968 269.322 268.562 268.072 265.444 267.224C258.558 265.352 255.808 263.935 252.728 260.671C251.434 259.299 246.26 252.218 241.231 244.936C232.054 231.647 230.939 229.932 230.939 229.105C230.939 228.859 233.74 225.258 237.162 221.103C252.76 202.166 258.094 194.819 263.965 184.181C268.151 176.598 269.54 175.059 274.717 172.274C280.602 169.107 285.51 165.744 287.951 163.206C289.08 162.033 293.747 155.335 298.324 148.322C302.901 141.309 308.707 132.433 311.226 128.597C316.064 121.232 317.442 118.328 317.966 114.399L318.288 111.988L316.257 110.588C315.14 109.818 314.298 109.116 314.387 109.029C314.474 108.941 317.085 109.876 320.187 111.106C326.621 113.657 344.418 119.692 344.695 119.416C344.796 119.315 344.379 115.693 343.769 111.368L342.66 103.503L343.588 101.455L344.516 99.4065L344.887 100.324C345.091 100.829 346.052 105.396 347.022 110.472C348.952 120.559 351.478 129.511 353.692 134.1C355.558 137.969 358.439 141.152 364.995 146.588C370.98 151.552 373.607 154.731 377.512 161.734C394.738 192.626 395.527 193.871 399.009 195.639C400.543 196.417 412.013 200.552 412.638 200.552C412.744 200.552 412.83 199.546 412.83 198.317C412.83 195.555 413.477 195.851 414.564 199.11L415.389 201.579L417.683 201.272C423.563 200.484 430.082 198.19 430.082 196.91C430.082 196.507 427.731 189.05 424.856 180.342C417.708 158.682 416.497 154.774 414.475 146.851L412.723 139.985L413.342 138.277C413.684 137.338 414.927 135.027 416.107 133.141C417.287 131.255 418.252 129.434 418.252 129.094C418.252 128.754 417.161 124.649 415.828 119.972C414.495 115.295 412.694 108.174 411.826 104.148L410.247 96.8279L408.704 94.3757C407.856 93.0271 404.162 88.2822 400.495 83.8316C396.829 79.381 393.333 75.0403 392.727 74.186L391.625 72.6323L393.158 65.8488C395.966 53.422 395.844 52.4941 390.202 43.3801C386.198 36.9124 383.488 31.6933 382.202 27.9768C381.278 25.3045 380.489 24 379.798 24C379.59 24 377.788 26.5904 375.792 29.7561ZM153.04 48.3986C150.255 52.6466 145.018 60.5365 141.404 65.9312L134.832 75.7397L122.027 88.5809C113.832 96.7989 109.098 101.909 108.88 102.773C108.585 103.946 110.836 121.661 111.5 123.381L111.734 123.99L112.957 123.528C113.629 123.273 114.693 123.065 115.322 123.065H116.464L116.811 119.265C117.348 113.406 118.424 108.973 120.044 105.955C121.585 103.083 125.212 98.5443 125.966 98.5443C126.207 98.5443 125.999 99.482 125.505 100.629C123.98 104.17 118.665 120.708 118.137 123.556C117.862 125.039 117.503 127.412 117.338 128.828L117.039 131.403H117.671C119.403 131.403 127.4 128.322 127.624 127.569C127.758 127.115 128.442 124.647 129.143 122.085C130.478 117.202 134.752 104.361 135.182 103.939C135.319 103.804 135.316 106.011 135.175 108.843L134.918 113.993L133.146 119.105C132.172 121.916 131.462 124.304 131.569 124.41C131.676 124.517 133.429 124.015 135.465 123.296L139.167 121.989L144.011 115.293C146.676 111.611 150.28 106.853 152.022 104.721C155.717 100.197 156.107 98.8734 155.676 92.3179L155.379 87.808L156.018 86.1876C158.123 80.8459 166.55 61.7631 166.802 61.7665C166.969 61.7685 167.579 62.5958 168.158 63.6056C168.738 64.6149 171.055 67.9238 173.307 70.9585L177.402 76.4758L178.832 75.1271C179.618 74.3851 183.62 70.2744 187.725 65.992L195.188 58.2065L191.403 54.7123C189.065 52.5529 186.602 49.6261 184.956 47.0499C183.49 44.7572 181.958 42.6062 181.551 42.2697C180.894 41.7283 166.973 40.6935 160.141 40.6788L158.106 40.6744L153.04 48.3986ZM353.688 80.5213C353.698 82.0362 354.321 87.1008 354.93 90.5995L355.211 92.2179L358.943 93.9098C364.518 96.438 365.298 96.1928 362.082 92.9231C360.901 91.7216 358.967 88.5794 357.166 84.9351C355.534 81.6306 354.081 78.9274 353.938 78.9274C353.795 78.9274 353.683 79.6449 353.688 80.5213ZM278.992 91.4332C279.565 102.231 281.869 120.735 283.602 128.46L283.987 130.177L284.545 129.161C284.851 128.602 285.351 126.725 285.654 124.989L286.206 121.834L285.424 115.519C284.107 104.89 280.365 87.3058 279.15 86.0385C278.851 85.7271 278.793 87.6932 278.992 91.4332ZM392.347 126.846C393.214 128.678 394.794 132.328 395.859 134.958C396.924 137.588 397.971 139.739 398.186 139.739C398.684 139.74 401.491 133.869 401.492 132.825C401.492 132.164 392.409 124.09 391.179 123.658C390.955 123.579 391.481 125.014 392.347 126.846ZM400.507 240.847C392.939 245.922 386.597 255.796 384.483 265.796C383.048 272.581 383.778 281.483 386.394 289.128C388.159 294.283 390.533 298.63 396.278 307.219C401.916 315.65 405.641 322.472 407.39 327.572C411.662 340.029 410.322 354.414 403.886 365.188C401.388 369.369 394.54 376.053 389.169 379.554C384.69 382.473 373.193 388.384 371.996 388.384C371.681 388.384 371.424 388.631 371.424 388.931C371.424 390.022 376.273 399.444 377.317 400.382L378.389 401.346L382.556 399.938C396.851 395.11 411.876 381.413 418.481 367.19C423.088 357.27 424.718 345.487 422.919 335.115C420.803 322.919 416.625 314.602 405.295 300.037C400.27 293.576 397.379 288.605 395.419 283.052L393.909 278.775L393.723 271.909L393.538 265.043L394.765 260.301C395.49 257.505 397.434 252.494 399.504 248.09C401.435 243.982 402.95 240.337 402.87 239.99C402.771 239.561 402.016 239.835 400.507 240.847ZM281.979 310.039C282.17 310.916 284.084 318.033 286.232 325.856C288.38 333.678 290.828 343.553 291.672 347.802C292.516 352.05 293.351 355.526 293.528 355.526C293.705 355.526 294.485 354.866 295.262 354.059L296.675 352.592L295.066 344.864C293.09 335.369 288.673 321.901 285.013 314.208C282.234 308.366 281.351 307.152 281.979 310.039ZM328.115 356.982C325.848 360.452 322.606 364.8 320.911 366.643L317.828 369.994L310.244 370.239L302.66 370.484L306.111 374.095C312.898 381.197 322.302 387.967 329.014 390.584C332.194 391.824 341.526 394.27 343.078 394.27H343.928L343.587 388.752C342.905 377.712 341.9 370.053 340.656 366.423C338.466 360.033 333.616 350.568 332.572 350.647C332.387 350.661 330.382 353.512 328.115 356.982Z" fill="white"/>
</svg>
