<svg width="747" height="205" viewBox="0 0 747 205" fill="none" xmlns="http://www.w3.org/2000/svg">
<path d="M331.776 94H274.688C248.192 94 228.736 73.52 228.736 46.512C228.736 19.12 248.192 0.943993 274.688 0.943993H326.016V20.912H274.688C259.712 20.912 248.704 32.048 248.704 47.536C248.704 62.896 259.584 74.032 274.688 74.032H311.808V54.576H272.512V38.832H331.776V94ZM445.776 94.256H425.808V55.344H384.592V38.192H425.808V0.943993H445.776V94.256ZM373.072 94.256H353.104V0.943993H373.072V94.256ZM555.324 89.008L542.78 64.56L529.852 89.008C527.548 93.36 523.836 95.28 519.74 95.28C515.388 95.28 511.676 93.232 509.372 89.008L462.012 0.943993H485.82L520.38 67.248L532.668 45.232L509.756 0.943993H533.692L566.204 67.248L600.892 0.943993H623.292L575.804 89.008C573.5 93.232 569.788 95.28 565.564 95.28C561.34 95.28 557.5 93.36 555.324 89.008ZM710.498 94H639.586V0.943993H708.066C726.882 0.943993 739.426 9.13599 739.426 25.264C739.426 36.528 733.922 42.032 728.674 44.464C735.714 47.408 741.218 54.704 741.218 64.432C741.218 82.864 728.802 94 710.498 94ZM709.858 54.576H671.074V38.832H708.45C715.746 38.832 719.074 35.888 719.074 29.872C719.074 22.96 713.954 20.784 705.378 20.784H659.554V74.16H706.914C715.362 74.16 720.866 71.088 720.866 64.304C720.866 58.16 717.026 54.576 709.858 54.576Z" fill="#06173a"/>
<path d="M282.656 204H231.488V200.352H282.656C292.832 200.352 298.016 193.824 298.016 184.992C298.016 174.912 292.64 170.208 282.656 170.208H248.96C237.44 170.208 230.432 162.816 230.432 152.256C230.432 141.984 236.96 134.208 249.056 134.208H298.304V137.952H249.056C239.456 137.952 234.272 144.096 234.272 152.448C234.272 160.992 239.84 166.656 248.96 166.656H282.656C294.944 166.656 301.568 172.608 301.568 185.088C301.568 195.936 295.328 204 282.656 204ZM361.773 204H358.029V137.952H329.037V134.208H390.766V137.952H361.773V204ZM486.657 173.184V134.208H490.305V173.184C490.305 194.784 480.129 204.96 454.497 204.96C429.057 204.96 418.881 194.784 418.881 173.184V134.208H422.625V173.184C422.625 192.384 431.553 201.216 454.593 201.216C477.825 201.216 486.657 192.384 486.657 173.184ZM560.762 204H522.458V134.208H560.762C579.386 134.208 592.922 148.128 592.922 168.384C592.922 188.64 579.386 204 560.762 204ZM526.202 200.352H560.762C577.274 200.352 589.178 186.624 589.178 168.576C589.178 150.432 577.274 137.952 560.762 137.952H526.202V200.352ZM628.458 204H624.714V134.208H628.458V204ZM708.616 204H692.488C673.864 204 660.328 188.64 660.328 168.384C660.328 147.84 673.864 134.208 692.488 134.208H708.616C727.624 134.208 740.872 148.128 740.872 168.384C740.872 188.64 727.336 204 708.616 204ZM692.488 200.352H708.616C725.224 200.352 737.128 186.624 737.128 168.576C737.128 150.432 725.416 137.952 708.616 137.952H692.488C676.072 137.952 664.072 150.24 664.072 168.576C664.072 186.624 676.072 200.352 692.488 200.352Z" fill="#06173a"/>
<path fill-rule="evenodd" clip-rule="evenodd" d="M137.131 3.5813C136.236 5.00093 134.889 6.81138 134.139 7.60444L132.774 9.04629L132.334 12.4457L131.895 15.8451L132.36 16.5049C132.616 16.8678 134.062 18.5201 135.572 20.1771C138.373 23.2481 139.04 24.0568 138.892 24.2037C138.846 24.249 138.384 24.0971 137.865 23.8659C137.282 23.6062 135.759 22.3154 133.88 20.4891L130.839 17.5327L126.319 15.3334C120.889 12.6918 117.942 11.4294 114.41 10.2337L111.761 9.33681L101.748 8.01922C96.2412 7.29456 90.6413 6.64357 89.304 6.57254L86.8724 6.44366L85.0699 6.78477C84.0785 6.97237 81.7906 7.68383 79.9857 8.36583C76.989 9.49846 69.3253 12.2834 65.3742 13.6758C62.3341 14.7473 59.4903 16.9633 53.7933 22.6996C49.535 26.9876 47.6368 29.3278 41.9989 37.2417C36.7921 44.5504 35.0807 47.2043 33.1761 50.9237C30.5564 56.0396 29.1658 59.9742 28.4071 64.416L27.9622 67.0222V70.5756C27.9622 77.401 29.1981 84.654 31.5282 91.5004C33.0112 95.8585 35.9125 100.954 36.5367 100.298C36.6517 100.177 40.4582 95.1292 44.9957 89.0812L53.2456 78.0848L53.5208 77.0483C53.7681 76.1169 55.0209 66.6362 55.9265 58.8411L56.2716 55.8721L57.8669 54.26C58.7442 53.3735 62.106 50.3835 65.3375 47.616L71.2131 42.5838L71.4854 41.6405C71.6353 41.1215 72.5089 38.4208 73.4267 35.6387C75.0643 30.6756 76.1266 28.1086 76.3154 28.6582C76.4184 28.9573 73.9289 41.065 73.3821 42.926L73.05 44.0555L66.5113 49.7438C59.0402 56.2435 59.3269 55.9888 58.9759 56.4338C58.8302 56.6185 58.0577 61.4171 57.259 67.0974C56.4603 72.7775 55.724 77.7765 55.623 78.206C55.4373 78.9942 53.2759 81.91 46.1759 90.9506C44.2285 93.4303 40.559 98.1807 38.0215 101.507C31.6429 109.869 28.0106 114.358 25.1188 117.452L22.6521 120.091L21.9577 121.521C18.5482 128.54 14.0947 137.153 13.3688 138.13C12.0117 139.958 11.0667 140.806 8.64557 142.369C7.42647 143.156 5.9368 144.255 5.3351 144.812L4.24112 145.823L3.26031 147.912C1.64067 151.362 -0.131946 155.662 0.00775836 155.801C0.261526 156.054 3.02821 156.176 3.30408 155.946C3.45439 155.821 3.80476 155.076 4.08262 154.29C4.81917 152.206 5.75996 150.439 6.66318 149.445C7.39773 148.636 10.2307 146.592 10.6178 146.592C10.7111 146.592 10.2349 147.169 9.55962 147.873C7.13468 150.402 3.53132 156.63 2.44242 160.173L2.29034 160.668L3.02378 160.658C4.11578 160.644 9.39316 159.661 9.59233 159.434C9.68738 159.326 10.1419 158.348 10.6028 157.259C11.5714 154.97 14.0271 150.027 14.138 150.143C14.3624 150.376 13.5178 153.527 12.8495 154.95C12.4233 155.857 11.9213 157.129 11.7341 157.776L11.3937 158.953L13.2123 158.805C14.2123 158.724 15.2037 158.608 15.415 158.549C15.6279 158.489 16.305 157.461 16.933 156.245C18.0451 154.091 19.9764 151.651 20.5691 151.651C20.7342 151.651 20.9237 151.33 20.9917 150.936C21.0594 150.543 21.3059 149.034 21.5393 147.582L21.9637 144.943L23.3097 141.115C24.05 139.009 25.1493 136.04 25.7527 134.517L26.85 131.747L28.8247 129.988C29.9107 129.02 30.9483 127.931 31.1303 127.569C31.3124 127.206 31.6674 126.04 31.9194 124.979C32.1714 123.918 32.5236 122.779 32.7022 122.45C33.1306 121.659 51.9257 102.872 60.3462 94.8182C63.9936 91.3295 67.094 88.2617 67.2362 88.0007C67.3783 87.7399 68.2371 85.3031 69.1445 82.5856C71.5979 75.238 74.394 68.3039 75.1861 67.6028C75.4131 67.4018 77.7374 66.1772 80.3514 64.8816C84.4404 62.8548 87.5216 61.2141 91.2934 59.0553L92.1776 58.5495L91.0724 59.7045C88.8026 62.0764 83.4118 65.9846 78.6269 68.7269L76.5709 69.905L76.233 70.6961C74.6286 74.4485 72.3862 80.2447 70.9492 84.3527L69.2181 89.3011L67.7715 90.6207C64.7022 93.4204 56.7955 100.994 50.9646 106.719L44.8726 112.7L47.0831 114.864C48.5611 116.311 51.7477 118.857 56.6989 122.548C60.7717 125.584 65.3972 129.202 66.9777 130.589C71.7646 134.789 75.3419 139.047 77.4291 143.028C78.504 145.079 79.5299 147.483 79.3896 147.623C79.3527 147.659 78.8327 146.972 78.2344 146.096C74.9283 141.255 69.4909 135.487 65.2984 132.375C63.0072 130.674 58.7204 127.955 57.7614 127.595L57.1491 127.365L55.211 127.989C54.1448 128.332 50.9349 129.548 48.0778 130.69C45.2208 131.832 40.9951 133.405 38.6878 134.185C36.3802 134.965 34.3729 135.725 34.2265 135.874C33.8921 136.216 33.3189 138.521 32.2523 143.815L31.4161 147.965L31.734 148.474C32.0788 149.026 44.0527 162.595 44.562 163.011C44.7329 163.15 47.8071 164.228 51.3936 165.405C58.1213 167.613 64.07 169.695 64.8674 170.119L65.3225 170.362L65 170.958C64.8227 171.286 63.9686 172.395 63.1021 173.424C59.3168 177.915 56.0317 181.283 51.9863 184.819C49.6066 186.9 47.5858 188.721 47.4954 188.867C47.3159 189.156 46.7789 196.391 46.7619 198.745L46.7515 200.205L48.7558 202.102L50.7599 204L52.6795 202.366C53.735 201.467 54.8369 200.479 55.1278 200.171L55.6568 199.61L55.5085 196.688C55.4267 195.082 55.3069 193.322 55.2421 192.777L55.1243 191.788L56.1526 193.877C56.7183 195.026 57.2756 196.206 57.3912 196.499L57.6012 197.032L58.8077 195.399C60.0694 193.692 60.2662 193.198 60.6727 190.715C61.1798 187.617 60.9884 187.838 72.0431 177.566C74.9509 174.864 77.4333 172.487 77.5595 172.283L77.7894 171.912L77.2078 171.099C76.8879 170.651 74.7371 168.336 72.428 165.953L68.2298 161.621L67.1617 161.22C65.1333 160.458 58.3488 157.546 55.8345 156.359C53.3882 155.203 52.6271 154.628 54.3939 155.27C54.8714 155.444 57.9975 156.542 61.3409 157.711C64.6843 158.879 67.9298 160.122 68.553 160.472L69.6861 161.109L76.5108 162.763C80.2645 163.673 84.1621 164.621 85.1723 164.87L87.009 165.321L88.5643 164.851C89.4198 164.593 91.041 163.9 92.167 163.312C93.2931 162.725 94.6514 162.182 95.1855 162.106L96.1566 161.968L98.4776 163.648C104.843 168.252 109.29 170.342 116.493 172.112L120.251 173.036L122.351 173.065C123.506 173.081 124.915 173.015 125.482 172.918L126.513 172.743L127.089 173.358C127.406 173.697 128.633 175.304 129.816 176.931C130.999 178.558 132.452 180.438 133.045 181.11C134.422 182.669 134.811 183.571 134.659 184.854C134.595 185.401 134.483 186.047 134.412 186.289L134.282 186.729L136.055 187.792C137.03 188.376 138.585 189.394 139.511 190.055C140.437 190.716 141.217 191.228 141.243 191.192C141.304 191.111 141.015 187.048 140.795 184.88C140.45 181.5 141.584 184.451 142.477 189.258C142.735 190.649 143.051 191.913 143.179 192.066C143.449 192.39 146.821 194.017 147.651 194.224L148.212 194.364L148.086 193.296C147.718 190.195 147.053 186.917 146.374 184.86C145.955 183.59 145.639 182.52 145.673 182.483C145.795 182.349 147.297 184.997 147.832 186.289C148.133 187.015 148.502 188.153 148.653 188.819C149.029 190.479 149.356 190.914 150.524 191.31L151.53 191.651V190.157C151.53 188.107 151.131 183.239 150.85 181.844L150.618 180.698L149.515 179.893C148.909 179.45 146.541 178.124 144.253 176.946C139.648 174.575 138.594 173.913 136.974 172.379L135.871 171.334L133.609 166.496C132.365 163.835 131.063 160.847 130.715 159.857L130.083 158.057L130.331 155.898C130.685 152.826 130.658 147.503 130.222 134.056L129.841 122.29L129.293 121.234C128.667 120.028 121.047 106.98 120.824 106.734C120.617 106.505 104.633 102.827 103.847 102.827C102.983 102.827 101.716 103.928 100.047 106.132C98.2937 108.447 97.3836 110.112 96.197 113.174C95.2124 115.716 94.1459 117.968 93.559 118.745L93.2466 119.159L93.4131 117.755C93.5046 116.984 93.6485 115.345 93.7329 114.113L93.8863 111.873L92.0373 111.319C91.0202 111.014 89.0442 110.453 87.6461 110.073C84.5582 109.233 83.325 108.598 81.9436 107.134C81.3631 106.519 79.043 103.344 76.7876 100.078C72.6723 94.1182 72.1725 93.3493 72.1725 92.9783C72.1725 92.8681 73.4283 91.2534 74.963 89.39C81.958 80.8979 84.3497 77.6032 86.9829 72.8325C88.8599 69.4319 89.483 68.7418 91.8045 67.4928C94.4434 66.0728 96.6446 64.5645 97.7393 63.4261C98.2453 62.9003 100.338 59.8967 102.391 56.7518C104.444 53.6068 107.047 49.6263 108.177 47.9063C110.346 44.6034 110.964 43.3007 111.199 41.5391L111.343 40.458L110.433 39.8301C109.932 39.4848 109.554 39.1701 109.594 39.1307C109.633 39.0913 110.804 39.5107 112.195 40.0623C115.081 41.2064 123.061 43.9126 123.186 43.7888C123.231 43.7437 123.044 42.1195 122.77 40.1797L122.273 36.6525L122.689 35.7341L123.106 34.8157L123.272 35.2272C123.363 35.4535 123.794 37.5015 124.229 39.7779C125.095 44.3014 126.228 48.316 127.22 50.3739C128.057 52.1089 129.349 53.5362 132.289 55.9741C134.973 58.2002 136.151 59.6258 137.903 62.7661C145.627 76.6196 145.981 77.178 147.543 77.9706C148.23 78.3197 153.374 80.1741 153.654 80.1741C153.702 80.1741 153.74 79.7228 153.74 79.1715C153.74 77.9333 154.03 78.0659 154.518 79.5273L154.888 80.6346L155.917 80.4967C158.554 80.1433 161.477 79.1149 161.477 78.5409C161.477 78.3599 160.423 75.0161 159.134 71.1107C155.928 61.3975 155.385 59.6451 154.478 56.092L153.693 53.013L153.97 52.2472C154.123 51.826 154.681 50.7895 155.21 49.9437C155.739 49.0978 156.172 48.2812 156.172 48.1288C156.172 47.9764 155.683 46.1356 155.085 44.0384C154.487 41.9409 153.679 38.7476 153.29 36.942L152.582 33.6593L151.89 32.5597C151.51 31.9549 149.853 29.8271 148.209 27.8312C146.565 25.8354 144.997 23.8888 144.725 23.5057L144.231 22.8089L144.919 19.7669C146.178 14.1941 146.123 13.778 143.593 9.6909C141.798 6.79049 140.582 4.45001 140.006 2.7834C139.591 1.58501 139.238 1 138.928 1C138.834 1 138.026 2.16166 137.131 3.5813ZM37.239 11.9414C35.9899 13.8464 33.6416 17.3846 32.0207 19.8039L29.0738 24.2024L23.3311 29.961C19.6561 33.6463 17.5334 35.9378 17.4357 36.3255C17.3031 36.8514 18.3128 44.7958 18.6103 45.5671L18.7156 45.8403L19.2638 45.6329C19.5653 45.5187 20.0425 45.4255 20.3244 45.4255H20.8366L20.9924 43.721C21.2329 41.0938 21.7157 39.1056 22.4418 37.7524C23.1331 36.4643 24.7596 34.4291 25.0978 34.4291C25.2056 34.4291 25.1126 34.8496 24.8911 35.3638C24.2069 36.9521 21.8236 44.3681 21.5868 45.6454C21.4637 46.3107 21.3023 47.3747 21.2285 48.0096L21.0943 49.1643H21.3777C22.1547 49.1643 25.7408 47.7829 25.8412 47.4451C25.9015 47.2414 26.2081 46.1347 26.5224 44.9856C27.1213 42.796 29.0376 37.0376 29.2306 36.8483C29.2922 36.7878 29.2907 37.7775 29.2272 39.0476L29.1121 41.3568L28.3176 43.6493C27.8808 44.9102 27.5625 45.981 27.6105 46.0285C27.6582 46.0762 28.4445 45.8513 29.3574 45.5288L31.0175 44.9425L33.19 41.9401C34.3848 40.2886 36.0014 38.1551 36.7823 37.1988C38.4393 35.1702 38.6142 34.5766 38.421 31.6369L38.2879 29.6144L38.5744 28.8878C39.5185 26.4923 43.2974 17.9347 43.4106 17.9362C43.4853 17.9371 43.7589 18.3081 44.0187 18.761C44.2786 19.2136 45.3176 20.6974 46.3276 22.0583L48.1638 24.5325L48.8051 23.9277C49.1577 23.595 50.9524 21.7515 52.7931 19.8311L56.1398 16.3398L54.4428 14.7728C53.3941 13.8044 52.2895 12.4919 51.5514 11.3366C50.8943 10.3085 50.2072 9.34385 50.0244 9.19298C49.73 8.95018 43.487 8.48613 40.4233 8.47953L39.5106 8.47755L37.239 11.9414ZM127.219 26.3467C127.223 27.0261 127.503 29.2973 127.776 30.8662L127.902 31.592L129.575 32.3507C132.075 33.4845 132.425 33.3745 130.983 31.9083C130.453 31.3694 129.586 29.9604 128.778 28.3261C128.046 26.8442 127.395 25.6319 127.331 25.6319C127.267 25.6319 127.216 25.9537 127.219 26.3467ZM93.7214 31.2401C93.9785 36.0823 95.0117 44.3802 95.7889 47.8447L95.9616 48.6144L96.2116 48.159C96.3489 47.9082 96.573 47.0666 96.7092 46.2883L96.9568 44.873L96.606 42.0414C96.0155 37.2747 94.3371 29.3892 93.7922 28.8209C93.6582 28.6812 93.6324 29.5629 93.7214 31.2401ZM144.555 47.1207C144.944 47.9423 145.652 49.5793 146.13 50.7585C146.608 51.938 147.077 52.9028 147.173 52.9028C147.397 52.903 148.656 50.27 148.656 49.8023C148.656 49.5056 144.583 45.8847 144.031 45.6911C143.931 45.656 144.167 46.2992 144.555 47.1207ZM148.214 98.2441C144.82 100.52 141.977 104.948 141.028 109.432C140.385 112.475 140.712 116.467 141.885 119.895C142.677 122.207 143.742 124.156 146.318 128.008C148.846 131.789 150.517 134.848 151.301 137.135C153.217 142.722 152.616 149.173 149.729 154.004C148.61 155.879 145.539 158.877 143.13 160.447C141.121 161.756 135.966 164.407 135.429 164.407C135.288 164.407 135.172 164.517 135.172 164.652C135.172 165.141 137.347 169.366 137.815 169.787L138.296 170.219L140.164 169.588C146.575 167.422 153.313 161.28 156.275 154.902C158.341 150.453 159.072 145.169 158.265 140.518C157.316 135.049 155.442 131.319 150.362 124.787C148.108 121.89 146.812 119.661 145.933 117.171L145.256 115.253L145.172 112.174L145.089 109.095L145.64 106.968C145.964 105.714 146.836 103.467 147.765 101.492C148.631 99.6501 149.31 98.0156 149.274 97.8598C149.23 97.6674 148.891 97.7901 148.214 98.2441ZM95.0612 129.273C95.1468 129.666 96.0049 132.858 96.9683 136.366C97.9314 139.874 99.0293 144.302 99.4078 146.208C99.7864 148.113 100.161 149.671 100.24 149.671C100.319 149.671 100.669 149.375 101.018 149.014L101.651 148.356L100.93 144.89C100.044 140.632 98.0631 134.592 96.4218 131.142C95.1755 128.522 94.7794 127.978 95.0612 129.273ZM115.75 150.324C114.734 151.881 113.28 153.83 112.52 154.656L111.137 156.159L107.737 156.269L104.335 156.379L105.883 157.998C108.927 161.184 113.143 164.219 116.154 165.393C117.58 165.949 121.765 167.046 122.461 167.046H122.842L122.689 164.572C122.383 159.62 121.932 156.186 121.374 154.558C120.392 151.692 118.217 147.448 117.749 147.484C117.666 147.49 116.767 148.768 115.75 150.324Z" fill="#06173a"/>
</svg>
